<?xml version="1.0" encoding="UTF-8" standalone="no"?>
<!DOCTYPE svg PUBLIC "-//W3C//DTD SVG 1.1//EN"
 "http://www.w3.org/Graphics/SVG/1.1/DTD/svg11.dtd">
<!-- Generated by graphviz version 2.47.1 (20210417.1919)
 -->
<!-- Title: ErrorHandling Pages: 1 -->
<svg width="1306pt" height="218pt"
 viewBox="0.00 0.00 1306.00 218.00" xmlns="http://www.w3.org/2000/svg" xmlns:xlink="http://www.w3.org/1999/xlink">
<g id="graph0" class="graph" transform="scale(1 1) rotate(0) translate(4 214)">
<title>ErrorHandling</title>
<polygon fill="white" stroke="transparent" points="-4,4 -4,-214 1302,-214 1302,4 -4,4"/>
<!-- errorSome -->
<g id="node1" class="node">
<title>errorSome</title>
<polygon fill="none" stroke="black" points="715,-123 353,-123 353,-87 715,-87 715,-123"/>
<text text-anchor="middle" x="534" y="-101.3" font-family="Times New Roman,serif" font-size="14.00">Pick one (0 or &#45;1 if convenient) to notify the caller of a failure.</text>
</g>
<!-- invalid -->
<g id="node2" class="node">
<title>invalid</title>
<polygon fill="none" stroke="black" points="934.5,-123 751.5,-123 751.5,-87 934.5,-87 934.5,-123"/>
<text text-anchor="middle" x="843" y="-101.3" font-family="Times New Roman,serif" font-size="14.00">Do invalid return values exist?</text>
</g>
<!-- errorSome&#45;&gt;invalid -->
<!-- someSuccess -->
<g id="node5" class="node">
<title>someSuccess</title>
<polygon fill="none" stroke="black" points="598,-36 0,-36 0,0 598,0 598,-36"/>
<text text-anchor="middle" x="299" y="-14.3" font-family="Times New Roman,serif" font-size="14.00">Do not modify the error code, unless there are extended modes of success the caller should know about</text>
</g>
<!-- errorSome&#45;&gt;someSuccess -->
<g id="edge7" class="edge">
<title>errorSome&#45;&gt;someSuccess</title>
<path fill="none" stroke="black" d="M486.73,-86.9C448.96,-73.24 395.91,-54.05 355.83,-39.56"/>
<polygon fill="black" stroke="black" points="356.79,-36.18 346.2,-36.07 354.41,-42.76 356.79,-36.18"/>
<text text-anchor="middle" x="453.5" y="-57.8" font-family="Times New Roman,serif" font-size="14.00">success</text>
</g>
<!-- someFail -->
<g id="node6" class="node">
<title>someFail</title>
<polygon fill="none" stroke="black" points="921.5,-36 616.5,-36 616.5,0 921.5,0 921.5,-36"/>
<text text-anchor="middle" x="769" y="-14.3" font-family="Times New Roman,serif" font-size="14.00">Return the value and set the error code accordingly.</text>
</g>
<!-- errorSome&#45;&gt;someFail -->
<g id="edge8" class="edge">
<title>errorSome&#45;&gt;someFail</title>
<path fill="none" stroke="black" d="M581.27,-86.9C619.04,-73.24 672.09,-54.05 712.17,-39.56"/>
<polygon fill="black" stroke="black" points="713.59,-42.76 721.8,-36.07 711.21,-36.18 713.59,-42.76"/>
<text text-anchor="middle" x="683" y="-57.8" font-family="Times New Roman,serif" font-size="14.00">failure</text>
</g>
<!-- invalid&#45;&gt;errorSome -->
<g id="edge6" class="edge">
<title>invalid&#45;&gt;errorSome</title>
<path fill="none" stroke="black" d="M751.2,-105C742.78,-105 734.07,-105 725.18,-105"/>
<polygon fill="black" stroke="black" points="725.09,-101.5 715.09,-105 725.09,-108.5 725.09,-101.5"/>
<text text-anchor="middle" x="733.25" y="-111.8" font-family="Times New Roman,serif" font-size="14.00">yes</text>
</g>
<!-- errorAll -->
<g id="node3" class="node">
<title>errorAll</title>
<polygon fill="none" stroke="black" points="1298,-123 970,-123 970,-87 1298,-87 1298,-123"/>
<text text-anchor="middle" x="1134" y="-101.3" font-family="Times New Roman,serif" font-size="14.00">Return the status code, or set it regardless of execution.</text>
</g>
<!-- invalid&#45;&gt;errorAll -->
<!-- invalid&#45;&gt;errorAll -->
<g id="edge5" class="edge">
<title>invalid&#45;&gt;errorAll</title>
<path fill="none" stroke="black" d="M934.67,-105C942.82,-105 951.22,-105 959.76,-105"/>
<polygon fill="black" stroke="black" points="959.85,-108.5 969.85,-105 959.85,-101.5 959.85,-108.5"/>
<text text-anchor="middle" x="952.25" y="-111.8" font-family="Times New Roman,serif" font-size="14.00">no</text>
</g>
<!-- returns -->
<g id="node4" class="node">
<title>returns</title>
<polygon fill="none" stroke="black" points="1043.5,-210 932.5,-210 932.5,-174 1043.5,-174 1043.5,-210"/>
<text text-anchor="middle" x="988" y="-188.3" font-family="Times New Roman,serif" font-size="14.00">Function returns:</text>
</g>
<!-- returns&#45;&gt;invalid -->
<g id="edge3" class="edge">
<title>returns&#45;&gt;invalid</title>
<path fill="none" stroke="black" d="M958.66,-173.8C936.35,-160.72 905.47,-142.62 881.23,-128.41"/>
<polygon fill="black" stroke="black" points="882.7,-125.21 872.3,-123.18 879.16,-131.25 882.7,-125.21"/>
<text text-anchor="middle" x="950.5" y="-144.8" font-family="Times New Roman,serif" font-size="14.00">non&#45;void</text>
</g>
<!-- returns&#45;&gt;errorAll -->
<g id="edge4" class="edge">
<title>returns&#45;&gt;errorAll</title>
<path fill="none" stroke="black" d="M1017.55,-173.8C1040.11,-160.66 1071.37,-142.46 1095.83,-128.22"/>
<polygon fill="black" stroke="black" points="1097.62,-131.23 1104.5,-123.18 1094.1,-125.18 1097.62,-131.23"/>
<text text-anchor="middle" x="1081.5" y="-144.8" font-family="Times New Roman,serif" font-size="14.00">void</text>
</g>
</g>
</svg>
